M48
;DRILL file {KiCad 4.0.7} date 12/12/18 23:49:02
;FORMAT={-:-/ absolute / inch / decimal}
FMAT,2
INCH,TZ
T1C0.016
T2C0.024
T3C0.028
T4C0.031
T5C0.039
T6C0.040
T7C0.047
T8C0.051
%
G90
G05
M72
T1
X4.3517Y-3.5986
X4.37Y-4.23
X4.38Y-3.96
X4.53Y-4.11
X4.5319Y-3.7671
X4.57Y-4.35
X4.6023Y-3.682
X4.625Y-3.175
X4.76Y-4.14
X4.7635Y-3.1695
X4.7711Y-3.7514
X4.81Y-2.59
X4.83Y-3.22
X4.83Y-4.16
X4.8353Y-4.2097
X4.8585Y-3.7167
X4.8636Y-2.7153
X4.8682Y-3.2
X4.8981Y-3.9442
X4.8993Y-3.7203
X4.91Y-4.09
X5.Y-3.23
X5.01Y-3.63
X5.01Y-3.99
X5.045Y-3.19
X5.0511Y-3.6891
X5.08Y-2.69
X5.13Y-2.64
X5.15Y-3.95
X5.15Y-4.4
X5.16Y-3.05
X5.165Y-2.78
X5.1889Y-2.8056
X5.2268Y-3.8
X5.2295Y-4.47
X5.25Y-3.65
X5.25Y-3.7
X5.2518Y-3.5954
X5.259Y-4.0486
X5.3Y-2.6085
X5.3Y-2.64
X5.3Y-3.9
X5.3Y-4.35
X5.3201Y-3.8049
X5.375Y-3.925
X5.415Y-3.72
X5.4486Y-3.7499
X5.45Y-4.3
X5.49Y-3.0866
X5.4976Y-3.7847
X5.5Y-3.8496
X5.5433Y-3.4394
X5.5434Y-3.0994
X5.55Y-2.925
X5.5984Y-3.4996
X5.6Y-3.39
X5.6Y-3.925
X5.6268Y-3.1606
X5.65Y-2.925
X5.72Y-3.12
X5.74Y-3.465
X5.75Y-3.375
X5.78Y-3.785
X5.8Y-3.16
X5.8074Y-3.6857
X5.8191Y-4.0486
X5.8398Y-3.8294
X5.8598Y-3.1763
X5.885Y-3.12
X5.8948Y-3.1507
X5.9051Y-3.8307
X5.9209Y-3.7698
X5.93Y-2.645
X5.94Y-2.61
X6.005Y-3.83
X6.0256Y-3.0411
X6.0484Y-3.8556
X6.1064Y-3.1477
X6.1285Y-3.1736
X6.1569Y-3.1923
X6.165Y-3.735
X6.25Y-3.65
X6.25Y-3.7
X6.25Y-3.9
X6.2556Y-3.8056
X6.3Y-3.475
X6.3Y-3.95
X6.3013Y-3.4129
X6.33Y-3.75
X6.33Y-4.775
X6.335Y-3.675
X6.375Y-4.7648
X6.3993Y-3.6494
X6.4477Y-4.7723
X6.45Y-3.95
X6.45Y-4.45
X6.4771Y-3.6992
X6.5008Y-3.8501
X6.505Y-3.81
X6.525Y-3.1957
X6.5954Y-3.4494
X6.6345Y-3.1591
X6.6951Y-3.9344
X6.7Y-4.465
X6.7402Y-4.5054
X6.7508Y-3.9516
X6.776Y-3.9927
X6.849Y-4.7475
X6.88Y-3.85
X7.0473Y-4.2868
X7.1487Y-3.59
X7.165Y-4.215
X7.4Y-3.195
T2
X5.15Y-4.2
X5.15Y-4.25
X5.15Y-4.3
T3
X4.45Y-4.05
X4.45Y-4.25
X5.95Y-2.3
X6.15Y-2.3
X6.8Y-3.55
X6.8Y-3.75
X6.975Y-2.525
X7.175Y-2.525
T4
X4.45Y-2.5
X4.45Y-2.8
X4.45Y-3.
X4.45Y-3.3
X4.45Y-3.55
X4.45Y-3.85
X4.55Y-2.5
X4.55Y-2.8
X4.55Y-3.
X4.55Y-3.3
X4.55Y-3.55
X4.55Y-3.85
X4.6Y-4.05
X4.6Y-4.1484
X4.65Y-2.5
X4.65Y-2.8
X4.65Y-3.
X4.65Y-3.3
X4.65Y-3.55
X4.65Y-3.85
X4.75Y-2.5
X4.75Y-2.8
X4.75Y-3.
X4.75Y-3.3
X4.75Y-3.55
X4.75Y-3.85
X4.85Y-2.5
X4.85Y-2.8
X4.85Y-3.
X4.85Y-3.3
X4.85Y-3.55
X4.85Y-3.85
X4.95Y-2.5
X4.95Y-2.8
X4.95Y-3.
X4.95Y-3.3
X4.95Y-3.55
X4.95Y-3.85
X5.05Y-2.5
X5.05Y-2.8
X5.05Y-3.
X5.05Y-3.3
X5.05Y-3.55
X5.05Y-3.85
X5.3Y-2.5
X5.3Y-2.8
X5.3Y-3.
X5.3Y-3.3
X5.35Y-3.55
X5.35Y-4.15
X5.4Y-2.5
X5.4Y-2.8
X5.4Y-3.
X5.4Y-3.3
X5.45Y-3.55
X5.45Y-4.15
X5.5Y-2.5
X5.5Y-2.8
X5.5Y-3.
X5.5Y-3.3
X5.55Y-3.55
X5.55Y-4.15
X5.6Y-2.5
X5.6Y-2.8
X5.6Y-3.
X5.6Y-3.3
X5.65Y-3.55
X5.65Y-4.15
X5.7Y-2.5
X5.7Y-2.8
X5.7Y-3.
X5.7Y-3.3
X5.75Y-3.55
X5.75Y-4.15
X5.8Y-2.5
X5.8Y-2.8
X5.8Y-3.
X5.8Y-3.3
X5.85Y-3.55
X5.85Y-4.15
X5.9Y-2.5
X5.9Y-2.8
X5.9Y-3.
X5.9Y-3.3
X5.95Y-3.55
X5.95Y-4.15
X6.05Y-3.55
X6.05Y-4.15
X6.15Y-2.5
X6.15Y-2.8
X6.15Y-3.
X6.15Y-3.3
X6.15Y-3.55
X6.15Y-4.15
X6.25Y-2.5
X6.25Y-2.8
X6.25Y-3.
X6.25Y-3.3
X6.25Y-3.55
X6.25Y-4.15
X6.325Y-2.25
X6.325Y-2.3484
X6.35Y-2.5
X6.35Y-2.8
X6.35Y-3.
X6.35Y-3.3
X6.35Y-3.55
X6.35Y-4.15
X6.45Y-2.5
X6.45Y-2.8
X6.45Y-3.
X6.45Y-3.3
X6.45Y-3.55
X6.45Y-4.15
X6.55Y-2.5
X6.55Y-2.8
X6.55Y-3.
X6.55Y-3.3
X6.55Y-3.55
X6.55Y-4.15
X6.65Y-2.5
X6.65Y-2.8
X6.65Y-3.
X6.65Y-3.3
X6.65Y-3.55
X6.65Y-4.15
X6.75Y-2.5
X6.75Y-2.8
X6.75Y-3.
X6.75Y-3.3
X7.Y-2.75
X7.Y-2.85
X7.Y-2.95
X7.Y-3.05
X7.Y-3.15
X7.Y-3.25
X7.Y-3.35
X7.Y-3.55
X7.Y-3.65
X7.Y-3.75
X7.Y-3.85
X7.Y-3.95
X7.Y-4.05
X7.Y-4.15
X7.3Y-2.75
X7.3Y-2.85
X7.3Y-2.95
X7.3Y-3.05
X7.3Y-3.15
X7.3Y-3.25
X7.3Y-3.35
X7.3Y-3.55
X7.3Y-3.65
X7.3Y-3.75
X7.3Y-3.85
X7.3Y-3.95
X7.3Y-4.05
X7.3Y-4.15
T5
X6.575Y-2.225
X6.7522Y-2.225
T6
X6.922Y-2.226
X6.922Y-2.404
X7.178Y-2.226
X7.178Y-2.404
T7
X4.45Y-4.65
X4.45Y-4.85
X4.55Y-4.65
X4.55Y-4.85
X4.65Y-4.65
X4.65Y-4.85
X4.75Y-4.65
X4.75Y-4.85
X4.85Y-4.65
X4.85Y-4.85
X4.95Y-4.65
X4.95Y-4.85
X5.05Y-4.65
X5.05Y-4.85
X5.15Y-4.65
X5.15Y-4.85
X5.25Y-4.65
X5.25Y-4.85
X5.35Y-4.65
X5.35Y-4.85
X5.45Y-4.65
X5.45Y-4.85
X5.55Y-4.65
X5.55Y-4.85
X5.65Y-4.65
X5.65Y-4.85
X5.75Y-4.65
X5.75Y-4.85
X5.85Y-4.65
X5.85Y-4.85
X5.95Y-4.65
X5.95Y-4.85
X6.05Y-4.65
X6.05Y-4.85
X6.15Y-4.65
X6.15Y-4.85
X6.25Y-4.65
X6.25Y-4.85
X6.35Y-4.65
X6.35Y-4.85
X6.45Y-4.65
X6.45Y-4.85
X6.55Y-4.65
X6.55Y-4.85
X6.65Y-4.65
X6.65Y-4.85
X6.85Y-4.65
X6.85Y-4.85
X6.95Y-4.65
X6.95Y-4.85
X7.05Y-4.65
X7.05Y-4.85
X7.15Y-4.65
X7.15Y-4.85
T8
X6.5258Y-2.323
X6.8018Y-2.323
T0
M30
